<svg xmlns="http://www.w3.org/2000/svg" viewBox="0 0 36 36" style="fill-rule:evenodd;clip-rule:evenodd;stroke-linejoin:round;stroke-miterlimit:2">
  <path d="M36 9c0-4.967-4.033-9-9-9H9C4.033 0 0 4.033 0 9v18c0 4.967 4.033 9 9 9h18c4.967 0 9-4.033 9-9V9ZM23.568 28.44v1.392h-2.784V28.44h-1.392v1.392h-2.784V28.44h-1.392v1.392h-2.784V28.44H11.04v-1.392H6.864v-1.392H5.472v-5.568h1.392v-4.176h1.392V14.52h1.392v-1.392h2.784v-1.392h1.392v-1.392h8.352v1.392h1.392v1.392h2.784v1.392h1.392v1.392h1.392v4.176h1.392v5.568h-1.392v1.392H24.96v1.392h-1.392Zm-2.784-13.92v1.392h4.176v1.392h1.392v5.568H24.96v1.392h-4.176v-1.392h-5.568v1.392H11.04v-1.392H9.648v-5.568h1.392v-1.392h4.176V14.52h5.568v-1.392h-5.568v1.392H11.04v1.392H9.648v1.392H8.256v5.568h1.392v1.392h1.392v1.392h4.176v-1.392h1.392v1.392h2.784v-1.392h1.392v1.392h4.176v-1.392h1.392v-1.392h1.392v-5.568h-1.392v-1.392H24.96V14.52h-4.176Zm-8.352-2.784V8.952H11.04V6.168H8.256v2.784H6.864v5.568h1.392v-1.392h1.392v-1.392h2.784Zm15.312-2.784h1.392v5.568h-1.392v-1.392h-1.392v-1.392h-2.784V8.952h1.392V6.168h2.784v2.784Z" />
  <style>
    @media (prefers-color-scheme:dark){:root{filter:invert(100%)}}
  </style>
</svg>